HIERARCHY
ROOT Hips
{
	OFFSET 0.000000 0.000000 0.000000
	CHANNELS 6 Xposition Yposition Zposition Yrotation Xrotation Zrotation
	JOINT Chest
	{
		OFFSET 0.000000 -0.009281 11.569106
		CHANNELS 3 Yrotation Xrotation Zrotation
		JOINT Chest2
		{
			OFFSET -0.000000 0.016865 9.269641
			CHANNELS 3 Yrotation Xrotation Zrotation
			JOINT Chest3
			{
				OFFSET -0.000000 0.000001 8.374491
				CHANNELS 3 Yrotation Xrotation Zrotation
				JOINT Chest4
				{
					OFFSET -0.000000 0.000001 8.374493
					CHANNELS 3 Yrotation Xrotation Zrotation
					JOINT Neck
					{
						OFFSET -0.000000 0.000002 12.152554
						CHANNELS 3 Yrotation Xrotation Zrotation
						JOINT Head
						{
							OFFSET -0.000000 0.040101 7.802319
							CHANNELS 3 Yrotation Xrotation Zrotation
							End Site
							{
								OFFSET -0.000000 0.020947 14.853096
							}
						}
					}
					JOINT RightCollar
					{
						OFFSET 2.894404 0.000001 6.791374
						CHANNELS 3 Yrotation Xrotation Zrotation
						JOINT RightShoulder
						{
							OFFSET 13.574684 0.000001 0.000000
							CHANNELS 3 Yrotation Xrotation Zrotation
							JOINT RightElbow
							{
								OFFSET 23.923903 0.000002 0.000000
								CHANNELS 3 Yrotation Xrotation Zrotation
								JOINT RightWrist
								{
									OFFSET 19.846718 0.012767 0.000000
									CHANNELS 3 Yrotation Xrotation Zrotation
									End Site
									{
										OFFSET 14.973145 0.000001 0.000000
									}
								}
							}
						}
					}
					JOINT LeftCollar
					{
						OFFSET -2.894404 0.000001 6.791374
						CHANNELS 3 Yrotation Xrotation Zrotation
						JOINT LeftShoulder
						{
							OFFSET -13.574684 -0.000001 0.000000
							CHANNELS 3 Yrotation Xrotation Zrotation
							JOINT LeftElbow
							{
								OFFSET -23.923903 -0.000002 0.000000
								CHANNELS 3 Yrotation Xrotation Zrotation
								JOINT LeftWrist
								{
									OFFSET -19.846718 0.012763 0.000000
									CHANNELS 3 Yrotation Xrotation Zrotation
									End Site
									{
										OFFSET -14.973145 -0.000001 0.000000
									}
								}
							}
						}
					}
				}
			}
		}
	}
	JOINT RightHip
	{
		OFFSET 9.469263 0.004643 0.045487
		CHANNELS 3 Yrotation Xrotation Zrotation
		JOINT RightKnee
		{
			OFFSET 0.000000 0.002661 -40.478676
			CHANNELS 3 Yrotation Xrotation Zrotation
			JOINT RightAnkle
			{
				OFFSET 0.000000 0.049106 -35.224068
				CHANNELS 3 Yrotation Xrotation Zrotation
				JOINT RightToe
				{
					OFFSET -0.000001 12.539529 -6.151390
					CHANNELS 3 Yrotation Xrotation Zrotation
					End Site
					{
						OFFSET -0.000001 5.044994 -1.291870
					}
				}
			}
		}
	}
	JOINT LeftHip
	{
		OFFSET -9.469263 0.004641 0.045487
		CHANNELS 3 Yrotation Xrotation Zrotation
		JOINT LeftKnee
		{
			OFFSET 0.000000 0.002661 -40.478676
			CHANNELS 3 Yrotation Xrotation Zrotation
			JOINT LeftAnkle
			{
				OFFSET 0.000000 0.049106 -35.224068
				CHANNELS 3 Yrotation Xrotation Zrotation
				JOINT LeftToe
				{
					OFFSET -0.000001 12.539529 -6.151390
					CHANNELS 3 Yrotation Xrotation Zrotation
					End Site
					{
						OFFSET -0.000001 5.044994 -1.291870
					}
				}
			}
		}
	}
}
MOTION
Frames: 16
Frame Time: 0.016667
31.485876 -4.568331 83.166237 2.915971 0.234768 -120.295313 -0.176429 -3.085471 2.255133 0.045779 -1.199834 0.736098 0.045778 -1.199835 0.736098 0.035779 -0.899821 0.552142 -0.032121 -15.154409 -0.053785 -0.080392 8.041949 -0.112780 9.598443 9.592992 -0.410976 41.199199 -15.811628 -17.785562 -40.536039 -64.784016 104.723302 -59.920164 37.933416 36.336261 -7.953234 5.138869 -3.248817 -43.415278 -15.971919 19.389544 16.186695 -63.062256 -73.708205 32.595944 23.290416 -68.799772 4.444270 2.383697 0.859685 0.359507 -2.363512 3.172052 0.968275 0.931510 5.370183 -0.208559 0.249169 0.083287 -2.491443 0.867176 9.134830 -3.060888 -1.795416 3.360718 7.478694 3.470103 10.864054 -0.644358 -0.341069 -0.138613 
31.335575 -4.628103 83.184769 3.024484 0.255731 -120.205633 -0.175210 -3.074424 2.187359 0.047527 -1.204543 0.711999 0.047527 -1.204543 0.712000 0.037048 -0.903354 0.534074 -0.043155 -15.166567 -0.009640 -0.084392 8.019411 -0.034312 9.587230 9.611061 -0.419755 41.210705 -15.680586 -17.895434 -40.611372 -64.758007 104.801036 -59.836344 37.879488 36.401367 -7.957293 5.120723 -3.293793 -43.376704 -16.012397 19.424500 16.120618 -63.025912 -73.734119 32.630604 23.173239 -68.695912 4.453402 2.558889 1.447142 0.185776 -2.366548 3.563352 1.098047 0.714303 5.822265 -0.123266 0.291669 0.064893 -2.368096 1.072361 8.989018 -3.028384 -1.813938 3.418447 7.528839 3.302514 10.730399 -0.652355 -0.338737 -0.094860 
31.162745 -4.677301 83.189537 3.117861 0.321021 -120.031409 -0.197785 -3.042249 2.099347 0.042482 -1.206654 0.680670 0.042482 -1.206653 0.680669 0.033204 -0.904944 0.510566 -0.047151 -15.204588 0.026674 -0.078181 7.948821 0.032170 9.563787 9.579633 -0.433098 41.243909 -15.477420 -18.004044 -40.723671 -64.719157 104.859441 -59.726330 37.833528 36.490545 -7.951675 5.023335 -3.336952 -43.323777 -16.076739 19.378328 15.973056 -62.991604 -73.710377 32.693739 23.114726 -68.621907 4.410817 2.692897 1.872016 0.062000 -2.258333 3.884925 1.263453 0.568594 6.175670 -0.108661 0.245178 0.038566 -2.296351 1.291127 8.987124 -2.964686 -1.821510 3.342501 7.524387 3.130316 10.457949 -0.625411 -0.337520 -0.026097 
30.971745 -4.716648 83.176117 3.119789 0.418110 -119.832459 -0.269787 -3.050972 2.046410 0.018617 -1.214566 0.649726 0.018618 -1.214565 0.649723 0.015253 -0.910906 0.487313 -0.035594 -15.267739 0.050957 -0.047446 7.831540 0.081945 9.548569 9.552833 -0.460210 41.325961 -15.294052 -18.113462 -40.832165 -64.647795 104.840767 -59.566531 37.774402 36.591195 -7.931581 4.917463 -3.396551 -43.261722 -16.170779 19.304954 15.804470 -62.963389 -73.693561 32.773628 23.160022 -68.569096 4.278138 2.764052 2.234043 0.081303 -2.156058 4.106637 1.506732 0.637912 6.346628 -0.239873 0.051366 -0.002529 -2.322144 1.468130 9.143253 -2.854325 -1.831117 3.185890 7.469719 2.977800 10.169080 -0.565649 -0.356195 0.066695 
30.773588 -4.725599 83.147232 3.058924 0.556462 -119.601230 -0.387689 -3.057719 1.997585 -0.025921 -1.225362 0.626810 -0.025921 -1.225361 0.626810 -0.018185 -0.919050 0.470035 -0.008368 -15.364152 0.063990 0.008280 7.652477 0.116479 9.543704 9.530596 -0.504424 41.458514 -15.167499 -18.183154 -40.905928 -64.598495 104.723138 -59.387327 37.713351 36.709227 -7.910878 4.818452 -3.462002 -43.159525 -16.287909 19.235138 15.602966 -62.947228 -73.682059 32.843583 23.299105 -68.523361 4.117917 2.849079 2.442568 0.279992 -2.137412 4.154314 1.792879 0.983065 6.224271 -0.531703 -0.292053 -0.059788 -2.434505 1.631447 9.436684 -2.705365 -1.856339 3.107195 7.353655 2.868626 9.592300 -0.474360 -0.379906 0.169000 
30.592001 -4.797433 83.116402 2.955786 0.671449 -119.302655 -0.481764 -3.078284 1.897836 -0.084690 -1.242102 0.608702 -0.084689 -1.242102 0.608702 -0.062277 -0.931661 0.456336 0.015283 -15.494796 0.078970 0.057907 7.409798 0.153167 9.566965 9.528252 -0.516803 41.590917 -15.125592 -18.186205 -40.897366 -64.615147 104.494224 -59.287818 37.709181 36.811909 -7.932881 4.812088 -3.494265 -42.995143 -16.414247 19.221491 15.360607 -62.978394 -73.665011 32.911820 23.457871 -68.469614 3.998689 2.975656 2.167732 0.729286 -2.089445 3.999282 1.613197 1.364648 6.281450 -0.608245 -0.683970 -0.081614 -2.552449 1.709498 9.819480 -2.551481 -1.862006 3.159895 7.197759 2.818921 8.994011 -0.372746 -0.410237 0.251812 
30.524191 -5.006263 83.094734 2.813271 0.770920 -118.880740 -0.555536 -3.103715 1.710887 -0.154570 -1.259833 0.595250 -0.154570 -1.259831 0.595252 -0.114697 -0.945027 0.446101 0.030469 -15.670010 0.088603 0.089552 7.084366 0.176546 9.607422 9.445345 -0.524810 41.686338 -15.112992 -18.061710 -40.824959 -64.673524 104.194099 -59.286711 37.735569 36.858026 -7.970127 4.852284 -3.493748 -42.830846 -16.495581 19.233043 15.142309 -63.042441 -73.637082 32.890411 23.619615 -68.480535 4.106109 3.003629 1.144080 0.796704 -1.790832 3.272432 1.442914 1.825724 7.115345 -0.519526 -1.223887 -0.078933 -2.607927 1.609888 10.132635 -2.457866 -1.820808 3.165327 7.048757 2.811273 8.429127 -0.324813 -0.413589 0.254671 
30.499245 -5.314958 83.090462 2.728141 0.857409 -118.444728 -0.607643 -3.079855 1.541258 -0.221135 -1.275843 0.593261 -0.221134 -1.275842 0.593263 -0.164606 -0.957099 0.444466 0.034331 -15.873442 0.092288 0.097754 6.706553 0.184529 9.669370 9.424813 -0.523306 41.765200 -15.198086 -17.948398 -40.603873 -64.759291 103.773776 -59.273700 37.739899 36.918815 -7.985430 4.872199 -3.496054 -42.718349 -16.468168 19.224141 15.041274 -63.093845 -73.641932 32.824690 23.794287 -68.645785 4.321543 3.076439 0.123599 0.708998 -1.734540 2.492812 1.222968 2.577241 7.924947 -0.333836 -1.687205 -0.083864 -2.582714 1.524762 10.272926 -2.372713 -1.836423 2.989816 6.897290 2.797561 8.241150 -0.316879 -0.366813 0.210893 
30.454752 -5.650652 83.107269 2.664848 0.911892 -118.079832 -0.652225 -3.025855 1.448780 -0.265836 -1.291419 0.599889 -0.265837 -1.291418 0.599889 -0.198100 -0.968825 0.449335 0.002633 -16.126056 0.104091 0.042600 6.237450 0.194611 9.750800 9.480951 -0.482282 41.817594 -15.396510 -17.887924 -40.340118 -64.856655 103.373165 -59.291561 37.735962 36.944719 -8.058942 4.977152 -3.466909 -42.659046 -16.469888 19.291060 15.170492 -63.083839 -73.752287 32.756173 24.004560 -68.910810 4.343237 3.383280 -0.571641 0.804421 -2.148969 2.412356 1.082736 3.408766 7.861688 -0.255807 -1.930717 -0.098977 -2.484745 1.515276 10.162231 -2.267707 -1.975877 2.769477 6.745581 2.808952 8.327375 -0.340655 -0.323132 0.161339 
30.358847 -5.980707 83.135605 2.566562 0.910264 -117.748923 -0.684863 -2.992663 1.394946 -0.289095 -1.315018 0.615332 -0.289095 -1.315018 0.615334 -0.215488 -0.986557 0.460858 -0.063920 -16.418178 0.126641 -0.073408 5.695010 0.212349 9.750381 9.373475 -0.457435 41.884120 -15.506230 -17.682822 -40.111276 -64.957360 103.088496 -59.385893 37.749298 36.886454 -8.075240 4.959015 -3.369287 -42.686654 -16.401822 19.278969 15.523500 -62.971687 -73.996856 32.693414 24.177394 -69.119718 4.196318 3.678373 -1.059801 1.120240 -2.731522 2.869121 1.102873 4.186594 7.110996 -0.396373 -2.001245 -0.094140 -2.347872 1.570420 9.787040 -2.133454 -2.278848 2.736125 6.598261 2.832859 8.525655 -0.388560 -0.246735 0.100319 
30.202316 -6.275331 83.160225 2.349171 0.884394 -117.423656 -0.763637 -3.043154 1.389837 -0.302225 -1.354166 0.633511 -0.302225 -1.354165 0.633516 -0.225254 -1.015938 0.474443 -0.144254 -16.731412 0.155802 -0.212428 5.113369 0.237922 9.698970 9.298772 -0.461830 41.979531 -15.613136 -17.507457 -39.836225 -65.025484 102.840328 -59.489903 37.736010 36.793946 -8.002304 4.829958 -3.320358 -42.761284 -16.198043 19.248694 15.852388 -62.799498 -74.254415 32.636232 24.138734 -69.205498 3.916084 3.752984 -1.598905 1.508352 -3.266965 2.995802 1.411677 4.923551 6.511834 -0.725441 -1.991214 -0.077559 -2.268578 1.646923 9.258346 -1.951763 -2.759228 2.978200 6.462690 2.972039 8.589206 -0.451774 -0.216441 0.020192 
29.947681 -6.558480 83.171341 2.111247 0.774266 -117.048733 -0.778100 -3.133274 1.401150 -0.310446 -1.406933 0.652258 -0.310447 -1.406932 0.652261 -0.231321 -1.055533 0.488455 -0.222392 -17.063139 0.185516 -0.346948 4.497352 0.265869 9.659314 9.315632 -0.459850 42.069194 -15.693644 -17.475949 -39.494766 -65.023893 102.553426 -59.497819 37.646155 36.767844 -7.901427 4.798136 -3.304257 -42.812483 -16.031769 19.239197 16.012991 -62.665305 -74.440866 32.641481 23.898878 -69.169954 3.720511 3.673244 -2.463213 1.785557 -3.680934 2.422015 2.007773 5.296143 7.159889 -1.105273 -1.761681 -0.059145 -2.107391 1.809446 8.699082 -1.709115 -3.397238 3.354210 6.245156 3.201118 8.450077 -0.486200 -0.238626 0.004728 
29.592817 -6.845023 83.165260 1.881733 0.620325 -116.602517 -0.733244 -3.224529 1.410278 -0.314063 -1.456745 0.666808 -0.314063 -1.456745 0.666808 -0.233946 -1.092903 0.499331 -0.289483 -17.431442 0.217352 -0.460102 3.813421 0.302160 9.607225 9.247930 -0.478468 42.120926 -15.625296 -17.454996 -39.340575 -64.941152 102.423365 -59.469644 37.526815 36.775969 -7.813898 4.767032 -3.307955 -42.790507 -15.886410 19.141477 16.042226 -62.607481 -74.581103 32.675721 23.591289 -69.007198 3.746344 3.335465 -3.567008 1.761610 -3.758429 2.329086 2.471436 5.268609 7.648294 -1.249429 -1.332103 -0.035066 -1.913247 2.113117 8.234767 -1.383248 -4.205217 3.641593 6.006203 3.491336 8.405378 -0.537301 -0.303398 -0.010160 
29.152615 -7.110685 83.145760 1.672198 0.487678 -116.082016 -0.677849 -3.281197 1.408689 -0.312033 -1.491524 0.670719 -0.312033 -1.491524 0.670721 -0.232375 -1.118987 0.502248 -0.338668 -17.842013 0.253454 -0.538686 3.050994 0.352951 9.544158 9.185350 -0.517541 42.123078 -15.510359 -17.460199 -39.317420 -64.848903 102.392636 -59.424886 37.427733 36.797617 -7.764574 4.711148 -3.318087 -42.705047 -15.761280 18.975008 15.980199 -62.624017 -74.691021 32.706108 23.298525 -68.839844 3.890225 2.877376 -4.532968 1.732371 -3.637614 2.945060 2.411070 5.062289 7.300357 -1.105390 -0.842170 -0.004672 -1.719268 2.600617 7.903151 -1.009633 -5.200333 3.729327 5.787410 3.851938 8.279930 -0.614736 -0.409612 -0.028654 
28.647999 -7.333839 83.118828 1.487316 0.367175 -115.501231 -0.639873 -3.296148 1.398650 -0.298873 -1.506951 0.662814 -0.298873 -1.506951 0.662815 -0.222506 -1.130538 0.496345 -0.358244 -18.298883 0.293896 -0.561482 2.202617 0.421929 9.512961 9.204002 -0.543299 42.078675 -15.426643 -17.520012 -39.258794 -64.830831 102.332981 -59.378236 37.373470 36.833615 -7.778388 4.720728 -3.325984 -42.603646 -15.757834 18.854773 15.935070 -62.652915 -74.793570 32.742841 23.098276 -68.775190 4.077315 2.475553 -5.151753 1.744641 -3.477014 3.240597 2.061671 4.725788 6.989389 -0.811790 -0.383293 0.009283 -1.539695 3.315933 7.617948 -0.624709 -6.470682 3.721081 5.644551 4.265236 8.156513 -0.720431 -0.489289 -0.046198 
28.104582 -7.476497 83.088013 1.331320 0.229473 -114.859753 -0.619274 -3.272691 1.371773 -0.268191 -1.499297 0.645744 -0.268191 -1.499296 0.645741 -0.199547 -1.124758 0.483617 -0.344697 -18.802667 0.328882 -0.525749 1.267091 0.491644 9.514640 9.228228 -0.544649 42.013364 -15.342690 -17.587317 -39.192985 -64.893279 102.289330 -59.391077 37.398089 36.851469 -7.821224 4.707223 -3.311321 -42.551249 -15.842480 18.740876 16.048308 -62.645068 -74.929006 32.744975 23.054646 -68.810413 4.246543 2.133250 -5.607770 1.812221 -3.320221 2.984055 1.710580 4.424477 6.972667 -0.541750 -0.062201 0.013419 -1.373394 4.244618 7.278254 -0.221042 -7.998835 3.752221 5.569921 4.673396 7.908923 -0.846016 -0.489702 -0.062917 
